<mxfile host="app.diagrams.net" modified="2023-11-18T12:20:08.223Z" agent="Mozilla/5.0 (Macintosh; Intel Mac OS X 10_15_7) AppleWebKit/537.36 (KHTML, like Gecko) Chrome/118.0.0.0 Safari/537.36" version="22.1.3" etag="G_RkNfZ4zfyPHUr-IhTQ" type="github">
  <diagram name="Page-1" id="A2UN5mian4-45inwZCJN">
    <mxGraphModel>
      <root>
        <mxCell id="0" />
        <mxCell id="1" parent="0" />
      </root>
    </mxGraphModel>
  </diagram>
</mxfile>
